<svg width="92" height="19" viewBox="0 0 92 19" fill="none" xmlns="http://www.w3.org/2000/svg">
<path d="M88.2857 0C87.2914 0 86.3371 0.441658 85.7143 1.12868C85.0914 0.441658 84.1371 0 83.1429 0C81.3829 0 80 1.31407 80 2.99891C80 5.05453 81.9429 6.73937 84.8857 9.28571L85.7143 10L86.5429 9.28571C89.4857 6.73937 91.4286 5.05453 91.4286 2.99891C91.4286 1.31407 90.0457 0 88.2857 0ZM85.7143 8.17884V5.99782H84L85.7143 2.18103V4.36205H87.4286" fill="white"/>
<path d="M3.392 15.888C3.392 15.984 2.944 16.032 2.048 16.032C1.16267 16.032 0.720001 15.9573 0.720001 15.808V4.848C0.720001 4.77333 0.885335 4.72 1.216 4.688C1.54667 4.656 1.824 4.64 2.048 4.64C2.944 4.64 3.392 4.736 3.392 4.928V8.128C3.98933 7.94667 4.44267 7.856 4.752 7.856C5.56267 7.856 6.20267 8.07467 6.672 8.512C7.14134 8.93867 7.376 9.73867 7.376 10.912V15.872C7.376 15.968 6.96 16.016 6.128 16.016C5.18933 15.984 4.72 15.9307 4.72 15.856V11.152C4.72 10.6293 4.54933 10.368 4.208 10.368C3.97333 10.368 3.70133 10.48 3.392 10.704V15.888Z" fill="white"/>
<path d="M14.7836 15.568C14.1116 15.9627 13.2476 16.16 12.1916 16.16C11.1356 16.16 10.245 15.8027 9.51963 15.088C8.79429 14.3627 8.43163 13.3653 8.43163 12.096C8.43163 10.816 8.77829 9.78667 9.47163 9.008C10.1756 8.22933 11.061 7.84 12.1276 7.84C13.1943 7.84 14.0156 8.112 14.5916 8.656C15.1783 9.2 15.4716 9.86133 15.4716 10.64C15.4716 12.368 14.4796 13.232 12.4956 13.232H11.3916C11.3916 13.552 11.477 13.776 11.6476 13.904C11.829 14.0213 12.0903 14.08 12.4316 14.08C13.1783 14.08 13.8876 13.9093 14.5596 13.568C14.5703 13.5573 14.6183 13.632 14.7036 13.792C14.9596 14.2507 15.0876 14.64 15.0876 14.96C15.0876 15.2693 14.9863 15.472 14.7836 15.568ZM12.7836 10.944C12.7836 10.496 12.565 10.272 12.1276 10.272C11.925 10.272 11.749 10.336 11.5996 10.464C11.461 10.5813 11.3916 10.7573 11.3916 10.992V11.488H12.2556C12.6076 11.488 12.7836 11.3067 12.7836 10.944Z" fill="white"/>
<path d="M17.5249 10.192C17.2262 9.65867 17.0769 9.22667 17.0769 8.896C17.0769 8.55467 17.1675 8.336 17.3489 8.24C17.9569 7.97333 18.7889 7.84 19.8449 7.84C20.9115 7.84 21.6635 8.09067 22.1009 8.592C22.5382 9.08267 22.7569 9.81333 22.7569 10.784V13.312H23.3009C23.4822 13.312 23.6209 13.4187 23.7169 13.632C23.8235 13.8453 23.8769 14.1387 23.8769 14.512C23.8769 14.8853 23.7809 15.2533 23.5889 15.616C23.4075 15.9787 23.1569 16.16 22.8369 16.16C22.2609 16.16 21.7969 16.0053 21.4449 15.696C21.2849 15.568 21.1622 15.4133 21.0769 15.232C20.5862 15.8507 19.8235 16.16 18.7889 16.16C18.0102 16.16 17.3542 15.8827 16.8209 15.328C16.2875 14.7733 16.0209 14.1173 16.0209 13.36C16.0209 11.6213 17.0609 10.752 19.1409 10.752H20.0209V10.592C20.0209 10.3147 19.9729 10.1387 19.8769 10.064C19.7915 9.97867 19.5835 9.936 19.2529 9.936C18.8475 9.936 18.2715 10.0213 17.5249 10.192ZM18.8049 13.136C18.8049 13.3707 18.8689 13.552 18.9969 13.68C19.1249 13.7973 19.2849 13.856 19.4769 13.856C19.6795 13.856 19.8609 13.776 20.0209 13.616V12.384H19.5729C19.0609 12.384 18.8049 12.6347 18.8049 13.136Z" fill="white"/>
<path d="M27.6945 15.872C27.6945 15.968 27.1505 16.016 26.0625 16.016C25.2092 16.0053 24.7825 15.9627 24.7825 15.888V4.992C24.7825 4.832 25.2998 4.752 26.3345 4.752C27.2412 4.784 27.6945 4.83733 27.6945 4.912V15.872Z" fill="white"/>
<path d="M32.8219 15.904C32.8219 16.032 32.3739 16.096 31.4779 16.096C30.4112 16.0533 29.8779 15.984 29.8779 15.888V10.224H29.0619C28.8485 10.224 28.7419 9.856 28.7419 9.12C28.7419 8.928 28.7579 8.69333 28.7899 8.416C28.8325 8.13867 28.9125 8 29.0299 8H29.8779V6.592C29.8779 6.37867 30.3259 6.272 31.2219 6.272C32.1285 6.272 32.5819 6.35733 32.5819 6.528V7.552L32.5979 8H33.9579C34.1392 8 34.2299 8.37333 34.2299 9.12C34.2299 9.86667 34.1392 10.24 33.9579 10.24H32.8219V15.904Z" fill="white"/>
<path d="M37.7045 15.888C37.7045 15.984 37.2565 16.032 36.3605 16.032C35.4752 16.032 35.0325 15.9573 35.0325 15.808V4.848C35.0325 4.77333 35.1978 4.72 35.5285 4.688C35.8592 4.656 36.1365 4.64 36.3605 4.64C37.2565 4.64 37.7045 4.736 37.7045 4.928V8.128C38.3018 7.94667 38.7552 7.856 39.0645 7.856C39.8752 7.856 40.5152 8.07467 40.9845 8.512C41.4538 8.93867 41.6885 9.73867 41.6885 10.912V15.872C41.6885 15.968 41.2725 16.016 40.4405 16.016C39.5018 15.984 39.0325 15.9307 39.0325 15.856V11.152C39.0325 10.6293 38.8618 10.368 38.5205 10.368C38.2858 10.368 38.0138 10.48 37.7045 10.704V15.888Z" fill="white"/>
<path d="M49.7438 15.904C49.7438 16.032 49.2957 16.096 48.3997 16.096C47.3331 16.0533 46.7998 15.984 46.7998 15.888V10.224H45.9837C45.7704 10.224 45.6637 9.856 45.6637 9.12C45.6637 8.928 45.6797 8.69333 45.7118 8.416C45.7544 8.13867 45.8344 8 45.9518 8H46.7998V6.592C46.7998 6.37867 47.2478 6.272 48.1438 6.272C49.0504 6.272 49.5037 6.35733 49.5037 6.528V7.552L49.5198 8H50.8798C51.0611 8 51.1518 8.37333 51.1518 9.12C51.1518 9.86667 51.0611 10.24 50.8798 10.24H49.7438V15.904Z" fill="white"/>
<path d="M55.4584 15.984C55.4584 16.0587 54.973 16.096 54.0024 16.096C53.0317 16.0747 52.5464 16.032 52.5464 15.968V10.656H52.1144C51.9437 10.656 51.805 10.5547 51.6984 10.352C51.6024 10.1387 51.5544 9.87733 51.5544 9.568C51.5544 8.416 51.8957 7.84 52.5784 7.84C53.0584 7.84 53.4584 7.98933 53.7784 8.288C54.0984 8.576 54.2584 8.90667 54.2584 9.28C54.4824 8.84267 54.781 8.496 55.1544 8.24C55.5384 7.97333 55.9277 7.84 56.3224 7.84C56.941 7.84 57.3144 8 57.4424 8.32C57.4744 8.40533 57.4904 8.53333 57.4904 8.704C57.4904 8.864 57.437 9.15733 57.3304 9.584C57.2344 10.0107 57.133 10.32 57.0264 10.512C56.9197 10.704 56.8557 10.8 56.8344 10.8C56.813 10.8 56.7117 10.7627 56.5304 10.688C56.3597 10.6027 56.205 10.56 56.0664 10.56C55.661 10.56 55.4584 10.88 55.4584 11.52V15.984Z" fill="white"/>
<path d="M59.3061 10.192C59.0075 9.65867 58.8581 9.22667 58.8581 8.896C58.8581 8.55467 58.9488 8.336 59.1301 8.24C59.7381 7.97333 60.5701 7.84 61.6261 7.84C62.6928 7.84 63.4448 8.09067 63.8821 8.592C64.3195 9.08267 64.5381 9.81333 64.5381 10.784V13.312H65.0821C65.2635 13.312 65.4021 13.4187 65.4981 13.632C65.6048 13.8453 65.6581 14.1387 65.6581 14.512C65.6581 14.8853 65.5621 15.2533 65.3701 15.616C65.1888 15.9787 64.9381 16.16 64.6181 16.16C64.0421 16.16 63.5781 16.0053 63.2261 15.696C63.0661 15.568 62.9435 15.4133 62.8581 15.232C62.3675 15.8507 61.6048 16.16 60.5701 16.16C59.7915 16.16 59.1355 15.8827 58.6021 15.328C58.0688 14.7733 57.8021 14.1173 57.8021 13.36C57.8021 11.6213 58.8421 10.752 60.9221 10.752H61.8021V10.592C61.8021 10.3147 61.7541 10.1387 61.6581 10.064C61.5728 9.97867 61.3648 9.936 61.0341 9.936C60.6288 9.936 60.0528 10.0213 59.3061 10.192ZM60.5861 13.136C60.5861 13.3707 60.6501 13.552 60.7781 13.68C60.9061 13.7973 61.0661 13.856 61.2581 13.856C61.4608 13.856 61.6421 13.776 61.8021 13.616V12.384H61.3541C60.8421 12.384 60.5861 12.6347 60.5861 13.136Z" fill="white"/>
<path d="M69.1878 12.032C69.1878 13.0773 69.5824 13.6 70.3717 13.6C70.8838 13.6 71.3104 13.4987 71.6517 13.296C71.8118 13.296 71.9398 13.5733 72.0358 14.128C72.1424 14.672 72.1958 15.0453 72.1958 15.248C72.1958 15.44 72.1691 15.568 72.1158 15.632C71.5504 15.984 70.7771 16.16 69.7958 16.16C68.8144 16.16 67.9771 15.7973 67.2838 15.072C66.6011 14.336 66.2598 13.3387 66.2598 12.08C66.2598 10.8107 66.5958 9.78667 67.2678 9.008C67.9504 8.22933 68.8517 7.84 69.9717 7.84C71.1024 7.84 71.8864 8.112 72.3238 8.656C72.4198 8.77333 72.4678 8.94933 72.4678 9.184C72.4678 9.408 72.4251 9.68533 72.3398 10.016C72.1478 10.6987 71.8971 11.0933 71.5878 11.2C71.5451 11.2107 71.4811 11.216 71.3958 11.216C71.3211 11.216 71.2251 11.152 71.1077 11.024C70.6917 10.608 70.3558 10.4 70.0998 10.4C69.8544 10.4 69.6411 10.528 69.4598 10.784C69.2784 11.04 69.1878 11.456 69.1878 12.032Z" fill="white"/>
<path d="M73.345 4.928C73.345 4.75733 73.8303 4.672 74.801 4.672C75.7077 4.704 76.161 4.77333 76.161 4.88V11.024L77.745 8.096C77.8197 7.936 78.273 7.856 79.105 7.856C79.937 7.856 80.4703 7.90933 80.705 8.016L78.625 11.408L81.025 15.904C81.0463 15.9467 80.8437 15.9787 80.417 16C80.001 16.032 79.6543 16.048 79.377 16.048C78.353 16.048 77.8037 16 77.729 15.904L76.145 12.352V15.888C76.145 16.0267 75.6757 16.096 74.737 16.096C73.809 16.096 73.345 16.032 73.345 15.904V4.928Z" fill="white"/>
</svg>
